<svg width="14" height="12" viewBox="0 0 14 12" xmlns="http://www.w3.org/2000/svg">
<path  d="M13.2194 5.49492L8.21936 0.494915C7.94041 0.215969 7.48815 0.215969 7.20921 0.494915C6.95172 0.752404 6.93191 1.15757 7.14979 1.43778L7.20921 1.50507L10.99 5.28571H1.28571C0.919401 5.28571 0.617493 5.56145 0.576232 5.91669L0.571426 5.99999C0.571426 6.3663 0.847169 6.66821 1.20241 6.70947L1.28571 6.71428H10.99L7.20921 10.4949C6.95172 10.7524 6.93191 11.1576 7.14979 11.4378L7.20921 11.5051C7.4667 11.7626 7.87186 11.7824 8.15207 11.5645L8.21936 11.5051L13.2194 6.50507L13.2883 6.42521L13.3395 6.34575L13.3777 6.26523L13.403 6.18999L13.4207 6.10604L13.4257 6.06374L13.4284 5.98629L13.4257 5.93624L13.4141 5.85662L13.393 5.77703L13.3617 5.69769L13.3243 5.62806L13.2766 5.55946C13.2588 5.5368 13.2397 5.51525 13.2194 5.49492L8.21936 0.494915L13.2194 5.49492Z" />
</svg>
